<svg width="22" height="22" viewBox="0 0 22 22" fill="none" xmlns="http://www.w3.org/2000/svg">
<path d="M9.83858 4.65301C11.9739 4.39855 14.1337 4.84993 15.9884 5.93822C17.843 7.02652 19.2905 8.69191 20.1098 10.6801C20.1862 10.8859 20.1862 11.1123 20.1098 11.3181C19.773 12.1348 19.3277 12.9026 18.7862 13.6006M12.9103 12.9782C12.3917 13.4791 11.697 13.7563 10.976 13.75C10.2549 13.7438 9.5652 13.4546 9.05533 12.9447C8.54546 12.4348 8.25625 11.7451 8.24998 11.024C8.24371 10.303 8.5209 9.60833 9.02183 9.08968M16.0224 16.0408C14.8064 16.7611 13.4498 17.2114 12.0444 17.3611C10.6391 17.5109 9.21796 17.3566 7.8775 16.9087C6.53703 16.4609 5.30859 15.7299 4.27553 14.7654C3.24246 13.801 2.42894 12.6256 1.89017 11.319C1.81377 11.1132 1.81377 10.8868 1.89017 10.681C2.70291 8.71004 4.13295 7.05582 5.96567 5.96659M1.83333 1.83334L20.1667 20.1667" stroke="white" stroke-width="1.5" stroke-linecap="round" stroke-linejoin="round"/>
</svg>
